<?xml version="1.0" encoding="UTF-8"?>
<svg width="16px" height="16px" viewBox="0 0 16 16" version="1.1" xmlns="http://www.w3.org/2000/svg">
    <g id="behappy-tray-mute" stroke="none" stroke-width="1" fill="none" fill-rule="evenodd">
        <path d="M3.5,1 C2.119,1 1,2.119 1,3.5 L1,10.5 C1,11.881 2.119,13 3.5,13 L4,13 L4,15 L6.5,13 L12.5,13 C13.881,13 15,11.881 15,10.5 L15,3.5 C15,2.119 13.881,1 12.5,1 Z M5.8,9.2 C4.475,9.2 3.4,8.125 3.4,6.8 C3.4,5.475 4.475,4.4 5.8,4.4 C6.462,4.4 7.062,4.668 7.5,5.1 C7.938,4.668 8.538,4.4 9.2,4.4 C10.525,4.4 11.6,5.475 11.6,6.8 C11.6,8.125 10.525,9.2 9.2,9.2 C8.538,9.2 7.938,8.932 7.5,8.5 C7.062,8.932 6.462,9.2 5.8,9.2 Z M5.8,5.4 C5.028,5.4 4.4,6.028 4.4,6.8 C4.4,7.572 5.028,8.2 5.8,8.2 C6.572,8.2 7.2,7.572 7.2,6.8 C7.2,6.028 6.572,5.4 5.8,5.4 Z M9.2,5.4 C8.428,5.4 7.8,6.028 7.8,6.8 C7.8,7.572 8.428,8.2 9.2,8.2 C9.972,8.2 10.6,7.572 10.6,6.8 C10.6,6.028 9.972,5.4 9.2,5.4 Z" fill="#FFFFFF" opacity="0.5"></path>
    </g>
</svg>